# xmcd CD database file
#
# Track frame offsets:
#	150
#	17762
#	34634
#	52581
#	75810
#	93767
#	107747
#	127614
#	149548
#	163578
#	177570
#
# Disc length: 2551 seconds
#
# Revision: 0
# Processed by: cddbd v1.5.1PL2 Copyright (c) Steve Scherf et al.
# Submitted via: CDex 1.51
#
DISCID=7509f50b
DTITLE=Kenny Neal - Blues Fallin' Down Like Rain
DYEAR=1900
DGENRE=Blues
TTITLE0=Big Boss Man
TTITLE1=Shadow On the Moon
TTITLE2=My Babe
TTITLE3=The Things I Used To Do
TTITLE4=Someday
TTITLE5=Just A Matter of Time
TTITLE6=Blues Fallin' Down Like Rain
TTITLE7=I'm Ready
TTITLE8=Full-Time Fool
TTITLE9=Strike While the Iron Is Hot
TTITLE10=Can't Say I Didn't Try
EXTD=
EXTT0=
EXTT1=
EXTT2=
EXTT3=
EXTT4=
EXTT5=
EXTT6=
EXTT7=
EXTT8=
EXTT9=
EXTT10=
PLAYORDER=
